# xmcd CD database file
#
# Track frame offsets:
#	150
#	12686
#	27156
#	41334
#	55289
#	70694
#	86520
#	101987
#	122325
#	146528
#	167554
#
# Disc length: 2488 seconds
#
# Revision: 0
# Processed by: cddbd v1.5.2PL0 Copyright (c) Steve Scherf et al.
# Submitted via: CDex 1.60beta1-cs1
#
DISCID=8c09b60b
DTITLE=Louis Armstrong - 'A Personificação do Jazz' - GIGANTES DO JAZZ - Abril Cultural
DYEAR=1900
DGENRE=Jazz
TTITLE0=Muskrat Ramble (Hot Five, CBS - 1926)
TTITLE1=Cornet Chop Suey (Hot Five, CBS - 1926)
TTITLE2=Potato head blues (Hot Seven, CBS - 1927)
TTITLE3=Sol blues (CBS - 1927)
TTITLE4=West End blues (CBS - 1928)
TTITLE5=Squeeze me (CBS - 1928)
TTITLE6=Basin St. blues (CBS - 1928)
TTITLE7=Back O'Town blues (RCA - 1948)
TTITLE8=Rockin' chair (RCA - 1948)
TTITLE9=Save it pretty mama (RCA - 1948)
TTITLE10=Ain't misbehavin' (RCA - 1948)
EXTD=
EXTT0=
EXTT1=
EXTT2=
EXTT3=
EXTT4=
EXTT5=
EXTT6=
EXTT7=
EXTT8=
EXTT9=
EXTT10=
PLAYORDER=
